<?xml version="1.0" encoding="UTF-8"?>
<svg width="80px" height="80px" viewBox="0 0 80 80" version="1.1" xmlns="http://www.w3.org/2000/svg" xmlns:xlink="http://www.w3.org/1999/xlink">
    <title>h</title>
    <g id="页面-1" stroke="none" stroke-width="1" fill="none" fill-rule="evenodd">
        <g id="h">
            <circle id="椭圆形" fill="#08B723" cx="40" cy="40" r="40"></circle>
            <path d="M37.1094664,18.3642485 L39.7663855,23.0274126 L39.427846,23.1468971 C37.0437811,23.9883318 34.8095348,24.670263 32.6665036,25.1951632 L32.187,25.309 L32.187,30.963 L39.868,30.964 L39.868,36.22 L32.187,36.22 L32.187,37.509 L32.6384955,37.8909804 C34.6879124,39.6459059 36.7912683,41.6376899 39.001198,43.9050625 L39.6065879,44.5302988 L40.3829379,45.3435204 L37.0733087,50.2808361 L36.1253967,48.887786 L35.451117,47.9111644 L34.8007925,46.982397 L34.1744307,46.1014909 L33.5720387,45.2684535 L32.993624,44.483292 C32.89922,44.3564218 32.8058154,44.2315467 32.7134103,44.108667 L32.4391937,43.7460137 L32.187,43.417 L32.188,62.764 L26.788,62.764 L26.788,45.025 L26.609544,45.3627456 C25.0858317,48.1837037 23.3197895,50.8137246 21.2949461,53.2748393 L20.7362871,53.9418811 L20.2091474,54.5502641 L19.883941,54.9195663 L17.4687996,48.7475381 L17.6237365,48.6086292 C21.5853858,45.0568057 24.5591765,41.0587237 26.5663878,36.6013845 L26.733,36.22 L18.916,36.22 L18.916,30.964 L26.788,30.963 L26.788,26.284 L26.083239,26.3912135 C25.0259249,26.5426398 23.9536191,26.6714222 22.8776982,26.7766231 L21.8009937,26.8739288 L20.7244072,26.9553051 L20.4996069,26.9706324 L18.65522,21.9256918 L19.0470864,21.8930363 C26.2810931,21.2902024 32.09624,20.1955993 36.4266534,18.6202835 L37.1094664,18.3642485 Z M60.748,21.028 L60.748,61.276 L55.252,61.276 L55.251,57.819 L46.012,57.819 L46.012,61.852 L40.564,61.852 L40.564,21.028 L60.748,21.028 Z M55.251,26.284 L46.012,26.284 L46.012,52.516 L55.251,52.516 L55.251,26.284 Z" id="和" fill="#FFFFFF" fill-rule="nonzero"></path>
        </g>
    </g>
</svg>