<?xml version="1.0" encoding="UTF-8"?>
<svg width="80px" height="80px" viewBox="0 0 80 80" version="1.1" xmlns="http://www.w3.org/2000/svg" xmlns:xlink="http://www.w3.org/1999/xlink">
    <title>hu</title>
    <g id="页面-1" stroke="none" stroke-width="1" fill="none" fill-rule="evenodd">
        <g id="hu">
            <circle id="椭圆形" fill="#003CEB" cx="40" cy="40" r="40"></circle>
            <path d="M51.436,45.988 L51.436,57.088 C51.436,57.4676358 51.6596604,57.667873 52.2332416,57.6964323 L52.384,57.7 L54.88,57.7 C55.4652588,57.7 55.8960818,57.5844133 56.2191583,57.3555271 C56.2410181,57.3430357 56.2655982,57.3138225 56.2927451,57.2680981 L56.3504161,57.1546965 L56.4146595,56.9976391 L56.4852029,56.7973004 L56.6022342,56.4164585 L56.6873351,56.109554 L56.8733022,55.3702059 L57.0254992,54.7073221 L57.1875783,53.9529511 L57.3586196,53.1083563 L57.4815862,52.4757061 L62.4110208,54.0466248 L62.2675804,55.0745236 L62.1545756,55.809766 L62.0382053,56.5020115 L61.9183917,57.1513684 C61.7968304,57.7793173 61.6699871,58.3430964 61.5375109,58.8431943 L61.403144,59.3220834 C61.1533148,60.1611967 60.8841598,60.7868184 60.5935168,61.2019597 C59.8784524,62.1724042 58.3123266,62.6715929 55.9719361,62.7131661 L55.648,62.716 L50.992,62.716 C47.7765295,62.716 46.081022,61.2063881 45.9917218,58.2939483 L45.988,58.048 L45.988,51.099 L38,51.099 L37.9648887,51.3257088 C37.4708941,54.3287856 36.6826892,56.6722161 35.5658689,58.414069 L35.3766835,58.6988176 L35.1912885,58.9590644 C33.4082661,61.1174601 30.8609668,62.5686813 27.6213182,63.291963 L27.1948348,63.3821742 L27.001944,63.4207524 L23.9056026,58.9663664 L24.3272393,58.8609572 C27.7094078,58.0154151 30.0495507,56.6160332 31.2969205,54.7220936 C32.4648236,52.8354808 33.0722406,50.1994961 33.1208311,46.7434457 L33.124,46.288 L33.124,45.988 L51.436,45.988 Z M41.356,18.292 L41.355,20.355 L58.108,20.356 L58.108,24.988 L41.355,24.988 L41.355,26.644 L60.844,26.644 L60.8399182,29.1533197 C60.4913099,31.2449691 59.9897472,33.2720158 59.3128761,35.3052592 L59.0507882,36.0681541 L58.956534,36.3342836 L53.8390256,34.864361 L53.9828901,34.5478591 C54.33011,33.7839753 54.6580245,32.9299531 54.9647575,31.9955748 L55.147,31.42 L40.251,31.42 L40.251,33.998 L52.24827,32.5641911 L53.0203124,37.1412997 L40.251,38.634 L40.252,38.704 C40.252,39.4786835 40.795057,39.9007017 42.0241932,39.9758001 L42.2354263,39.9851053 L42.448,39.988 L51.616,39.988 C52.1746573,39.988 52.6002646,39.8640679 52.906534,39.6202414 L53.0158178,39.5231943 C53.3373109,39.2731442 53.5980138,38.3587126 53.7409421,36.8018029 L53.7946195,36.1443294 L58.952227,37.7730476 L58.9217533,38.0206466 C58.5256463,41.2390157 57.8280664,43.1698173 56.7583109,43.8116279 C55.8404056,44.3430467 54.5509297,44.628479 52.889674,44.6641748 L52.528,44.668 L41.104,44.668 C37.0331283,44.668 34.8584797,43.0584939 34.759535,39.9374976 L34.756,39.712 L34.756,39.281 L28.1807511,40.04314 L27.4628779,35.5150164 L34.756,34.645 L34.756,31.42 L27.196,31.42 L27.196,41.776 C27.196,49.6032381 25.5223588,56.3871237 22.1874516,62.1059714 L21.8888841,62.6078111 L21.5816961,63.1041197 L21.3956202,63.3989411 L17.0511971,59.6445014 L17.1841446,59.4273538 C19.9501626,54.9095245 21.4611525,49.227172 21.6825967,42.4802481 L21.7,41.824 L21.7,26.644 L35.716,26.644 L35.716,18.292 L41.356,18.292 Z" id="虎" fill="#FFFFFF" fill-rule="nonzero"></path>
        </g>
    </g>
</svg>