<?xml version="1.0" encoding="UTF-8"?>
<svg width="80px" height="80px" viewBox="0 0 80 80" version="1.1" xmlns="http://www.w3.org/2000/svg" xmlns:xlink="http://www.w3.org/1999/xlink">
    <title>l</title>
    <g id="页面-1" stroke="none" stroke-width="1" fill="none" fill-rule="evenodd">
        <g id="l">
            <circle id="椭圆形" fill="#E90000" cx="40" cy="40" r="40"></circle>
            <path d="M43.6955491,21.4723643 L47.4476581,17.829012 L47.6469997,17.9536005 C50.7299274,19.8804303 53.4524304,21.8669889 55.8339115,23.9043834 L56.4221884,24.4147859 L56.6605603,24.6245532 L53.107,28.227 L61.804,28.228 L61.804,33.628 L46.348,33.628 L46.348,46.032 L46.8512781,45.4998082 C49.0162044,43.1588465 50.9522327,40.475769 52.6484492,37.4758054 L53.0356218,36.7778924 L53.4142505,36.0687979 L53.5532265,35.8034802 L58.4994669,38.3841274 L58.362641,38.6494867 C55.3159026,44.5583125 51.4477846,49.4151709 46.7586627,53.2529399 L46.348,53.583 L46.348,55.744 C46.348,56.7655001 46.6759407,57.2889259 47.3591078,57.3926317 L47.4913711,57.4071771 L47.632,57.412 L54.592,57.412 C55.1178337,57.412 55.5101029,57.1249737 55.8116718,56.5218359 C55.8465774,56.4520248 55.8804205,56.3673416 55.9132094,56.2676491 L55.9773836,56.048211 C55.9878459,56.008289 55.9981915,55.9666892 56.008421,55.9234064 L56.068405,55.6434734 C56.0781706,55.5934385 56.0878206,55.5417104 56.0973552,55.4882841 L56.1531814,55.1473072 L56.2062537,54.7653293 L56.2565865,54.3421064 L56.3041942,53.8773943 L56.3490913,53.3709492 L56.3912921,52.8225269 L56.4495694,51.9206524 L56.4850926,51.2662195 L56.5334211,50.2041852 L56.5634435,49.427628 L61.8680737,51.2138811 L61.7822882,52.3339483 L61.7076958,53.1809017 C61.6947897,53.3186242 61.6816463,53.4546284 61.6682649,53.5889142 L61.5851176,54.3740082 L61.4962345,55.1178573 L61.4015897,55.8204573 C61.3528226,56.1614444 61.3018851,56.4869614 61.2487626,56.7970061 L61.1395999,57.3964649 C60.7846653,59.2294189 60.3416981,60.4416951 59.8069882,61.0326894 C58.9359807,62.0004756 57.5794221,62.5132482 55.8188639,62.567236 L55.504,62.572 L46.144,62.572 C42.8363939,62.572 41.0299503,60.8948922 40.7848324,57.6418895 L40.765,57.295 L40.426426,57.4766139 C38.8853306,58.2861437 37.3702537,58.9968588 35.8569946,59.6146146 L35.1004046,59.915773 L34.3434452,60.2016009 L34.1221232,60.2829029 L30.9431303,55.5413541 L31.3085542,55.412962 C34.6399958,54.2424554 37.6350076,52.7883105 40.3168478,51.0297972 L40.756,50.735 L40.756,33.628 L36.568,33.628 L36.4731526,34.4061569 C36.2048106,36.480804 35.8720275,38.486838 35.4766069,40.4379292 L35.2736851,41.4089595 L35.0603739,42.3712124 C33.1674102,50.6056044 28.7267153,57.4127966 21.6934836,62.8696382 L20.9923014,63.4039068 L17.2998216,58.9622282 L17.5430582,58.7717871 C23.6816945,53.965568 27.6792718,48.1649292 29.5799748,41.3232882 C30.0962094,39.1292915 30.5352072,36.7405954 30.8968607,34.1572967 L30.968,33.628 L18.532,33.628 L18.532,28.228 L31.512,28.227 L31.5935524,27.0981596 C31.7177855,25.2206492 31.8019067,23.3349596 31.8441839,21.4262306 L31.8680189,19.9901318 L31.876,18.244 L37.42,18.244 L37.42,18.544 C37.42,21.4716016 37.3252394,24.3626149 37.1412889,27.573281 L37.102,28.227 L52.5251573,28.2279302 C50.6451211,26.3204555 47.9959881,24.2629458 44.5227817,22.0049288 L43.6955491,21.4723643 Z" id="龙" fill="#FFFFFF" fill-rule="nonzero"></path>
        </g>
    </g>
</svg>