<?xml version="1.0" encoding="UTF-8"?>
<svg width="80px" height="80px" viewBox="0 0 80 80" version="1.1" xmlns="http://www.w3.org/2000/svg" xmlns:xlink="http://www.w3.org/1999/xlink">
    <title>l_en</title>
    <g id="页面-1" stroke="none" stroke-width="1" fill="none" fill-rule="evenodd">
        <g id="l_en">
            <circle id="椭圆形备份-2" fill="#E90000" cx="40" cy="40" r="40"></circle>
            <path d="M38.376,19.516 C44.9873043,19.516 49.9988656,21.3487996 53.4664997,25.0476253 C56.7660003,28.5207838 58.42,33.5259307 58.42,40.008 C58.42,46.4331431 56.7664782,51.4368437 53.4687686,54.9659706 C50.0878375,58.5722971 45.2432938,60.4047819 38.8814075,60.4963844 L38.376,60.5 L23.26,60.5 L23.26,19.516 L38.376,19.516 Z M37.144,26.116 L30.812,26.116 L30.812,53.9 L37.144,53.9 C41.9847106,53.9 45.5104026,52.7744906 47.701931,50.5831724 C49.8415062,48.3366185 50.924,44.8185135 50.924,40.008 C50.924,35.0745232 49.8359049,31.5110116 47.7104466,29.3855534 C45.6023053,27.2774121 42.2541923,26.1875276 37.6124847,26.1194061 L37.144,26.116 Z" id="形状结合" fill="#FFFFFF" fill-rule="nonzero"></path>
        </g>
    </g>
</svg>