<?xml version="1.0" encoding="UTF-8"?>
<svg width="80px" height="80px" viewBox="0 0 80 80" version="1.1" xmlns="http://www.w3.org/2000/svg" xmlns:xlink="http://www.w3.org/1999/xlink">
    <title>x1_en</title>
    <g id="页面-1" stroke="none" stroke-width="1" fill="none" fill-rule="evenodd">
        <g id="x1_en">
            <circle id="椭圆形备份-9" fill="#003DE8" cx="40" cy="40" r="40"></circle>
            <path d="M41.076,20 C50.981126,20 56.08,24.303096 56.08,32.764 C56.08,41.1838031 51.0967233,45.5219136 41.3665422,45.6376222 L40.964,45.64 L31.551,45.64 L31.552,60.984 L24,60.984 L24,20 L41.076,20 Z M40.572,26.6 L31.551,26.6 L31.551,39.039 L40.572,39.04 C43.3292629,39.04 45.3833685,38.5264736 46.6456485,37.5799771 C47.856393,36.6214711 48.472,35.0311529 48.472,32.764 C48.472,30.5431952 47.8305657,28.9909243 46.5896485,28.0600229 C45.4214485,27.1351979 43.5419724,26.6456378 40.9475028,26.6030431 L40.572,26.6 Z" id="P备份-3" fill="#FFFFFF" fill-rule="nonzero"></path>
        </g>
    </g>
</svg>