<?xml version="1.0" encoding="UTF-8"?>
<svg width="80px" height="80px" viewBox="0 0 80 80" version="1.1" xmlns="http://www.w3.org/2000/svg" xmlns:xlink="http://www.w3.org/1999/xlink">
    <title>x2</title>
    <g id="页面-1" stroke="none" stroke-width="1" fill="none" fill-rule="evenodd">
        <g id="x2">
            <circle id="椭圆形" fill="#003DE8" cx="40" cy="40" r="40"></circle>
            <path d="M25.084,26.26 L25.084,63.34 L19.78,63.34 L19.78,26.26 L25.084,26.26 Z M60.172,20.356 L60.172,57.088 C60.172,60.8275909 58.243414,62.8164421 54.5187712,62.9049129 L54.256,62.908 L50.1397144,62.908 L48.721865,57.7819291 L53.248,57.94 C54.2651192,57.94 54.8165398,57.2851268 54.8645674,55.9407483 L54.868,55.744 L54.868,25.372 L36.964,25.372 L36.964,20.356 L60.172,20.356 Z M42.844,26.932 L42.843,33.7 L51.964,33.7 L51.964,38.812 L42.843,38.812 L42.843,39.616 L43.4976227,40.1460034 C47.0392922,43.0394671 50.1248162,45.9332773 52.7261831,48.8009285 L53.2761981,49.4150152 L53.9916978,50.2377017 L50.2890785,53.9947713 L50.08,53.716 C48.3266244,51.3781659 46.1327218,48.9649296 43.4982374,46.4768718 L42.843,45.866 L42.844,60.604 L37.636,60.604 L37.636,44.08 L37.5526754,44.242896 C35.3544325,48.4222655 32.8579145,51.9128508 30.0424277,54.7318582 L29.5952234,55.1713862 L29.1643692,55.5796206 L28.8972793,55.8281627 L25.5787428,50.4756845 L25.813237,50.3133423 C29.9531709,47.4472343 33.2913169,43.6493414 35.8428353,38.9231988 L35.901,38.812 L27.988,38.812 L27.988,33.7 L37.636,33.7 L37.636,26.932 L42.844,26.932 Z M28.2722788,17.745972 L28.4190469,17.915914 C30.0303028,19.7815787 31.514214,21.934597 32.9454833,24.437308 L33.4522926,25.3403889 L28.8403706,27.7277368 L28.6984049,27.4748604 C27.2098978,24.8234573 25.7065466,22.5790209 24.1108623,20.6641614 L23.7409531,20.228086 L23.4789772,19.9247455 L28.2722788,17.745972 Z" id="形状结合" fill="#FFFFFF" fill-rule="nonzero"></path>
            <path d="M68,56 C61.372583,56 56,61.372583 56,68 C56,74.627417 61.372583,80 68,80 C74.627417,80 80,74.627417 80,68 C80,61.372583 74.627417,56 68,56 Z" id="路径" fill="#FFFFFF" fill-rule="nonzero"></path>
            <path d="M68,58 C73.5228475,58 78,62.4771525 78,68 C78,73.5228475 73.5228475,78 68,78 C62.4771525,78 58,73.5228475 58,68 C58,62.4771525 62.4771525,58 68,58 Z" id="路径" fill="#003DE8" fill-rule="nonzero"></path>
        </g>
    </g>
</svg>