<?xml version="1.0" encoding="UTF-8"?>
<svg width="80px" height="80px" viewBox="0 0 80 80" version="1.1" xmlns="http://www.w3.org/2000/svg" xmlns:xlink="http://www.w3.org/1999/xlink">
    <title>x2_en</title>
    <g id="页面-1" stroke="none" stroke-width="1" fill="none" fill-rule="evenodd">
        <g id="x2_en">
            <circle id="椭圆形备份-5" fill="#003DE8" cx="40" cy="40" r="40"></circle>
            <path d="M41.076,20 C50.981126,20 56.08,24.303096 56.08,32.764 C56.08,41.1838031 51.0967233,45.5219136 41.3665422,45.6376222 L40.964,45.64 L31.551,45.64 L31.552,60.984 L24,60.984 L24,20 L41.076,20 Z M40.572,26.6 L31.551,26.6 L31.551,39.039 L40.572,39.04 C43.3292629,39.04 45.3833685,38.5264736 46.6456485,37.5799771 C47.856393,36.6214711 48.472,35.0311529 48.472,32.764 C48.472,30.5431952 47.8305657,28.9909243 46.5896485,28.0600229 C45.4214485,27.1351979 43.5419724,26.6456378 40.9475028,26.6030431 L40.572,26.6 Z" id="P备份" fill="#FFFFFF" fill-rule="nonzero"></path>
            <path d="M68,57 C71.0375661,57 73.7875661,58.2312169 75.7781746,60.2218254 C77.7687831,62.2124339 79,64.9624339 79,68 C79,71.0375661 77.7687831,73.7875661 75.7781746,75.7781746 C73.7875661,77.7687831 71.0375661,79 68,79 C64.9624339,79 62.2124339,77.7687831 60.2218254,75.7781746 C58.2312169,73.7875661 57,71.0375661 57,68 C57,64.9624339 58.2312169,62.2124339 60.2218254,60.2218254 C62.2124339,58.2312169 64.9624339,57 68,57 Z" id="路径备份" stroke="#FFFFFF" stroke-width="2" fill="#003DE8" fill-rule="nonzero"></path>
        </g>
    </g>
</svg>