<?xml version="1.0" encoding="UTF-8"?>
<svg width="80px" height="80px" viewBox="0 0 80 80" version="1.1" xmlns="http://www.w3.org/2000/svg" xmlns:xlink="http://www.w3.org/1999/xlink">
    <title>x3_en</title>
    <g id="页面-1" stroke="none" stroke-width="1" fill="none" fill-rule="evenodd">
        <g id="x3_en">
            <circle id="椭圆形备份-7" fill="#003DE8" cx="40" cy="40" r="40"></circle>
            <path d="M41.076,20 C50.981126,20 56.08,24.303096 56.08,32.764 C56.08,41.1838031 51.0967233,45.5219136 41.3665422,45.6376222 L40.964,45.64 L31.551,45.64 L31.552,60.984 L24,60.984 L24,20 L41.076,20 Z M40.572,26.6 L31.551,26.6 L31.551,39.039 L40.572,39.04 C43.3292629,39.04 45.3833685,38.5264736 46.6456485,37.5799771 C47.856393,36.6214711 48.472,35.0311529 48.472,32.764 C48.472,30.5431952 47.8305657,28.9909243 46.5896485,28.0600229 C45.4214485,27.1351979 43.5419724,26.6456378 40.9475028,26.6030431 L40.572,26.6 Z" id="P备份-2" fill="#FFFFFF" fill-rule="nonzero"></path>
            <path d="M12,1 C15.0375661,1 17.7875661,2.23121694 19.7781746,4.22182541 C21.7687831,6.21243388 23,8.96243388 23,12 C23,15.0375661 21.7687831,17.7875661 19.7781746,19.7781746 C17.7875661,21.7687831 15.0375661,23 12,23 C8.96243388,23 6.21243388,21.7687831 4.22182541,19.7781746 C2.23121694,17.7875661 1,15.0375661 1,12 C1,8.96243388 2.23121694,6.21243388 4.22182541,4.22182541 C6.21243388,2.23121694 8.96243388,1 12,1 L12,1 Z" id="路径备份-6" stroke="#FFFFFF" stroke-width="2" fill="#E90000" fill-rule="nonzero"></path>
        </g>
    </g>
</svg>