<?xml version="1.0" encoding="UTF-8"?>
<svg width="80px" height="80px" viewBox="0 0 80 80" version="1.1" xmlns="http://www.w3.org/2000/svg" xmlns:xlink="http://www.w3.org/1999/xlink">
    <title>x4</title>
    <g id="页面-1" stroke="none" stroke-width="1" fill="none" fill-rule="evenodd">
        <g id="x4">
            <circle id="椭圆形" fill="#003DE8" cx="40" cy="40" r="40"></circle>
            <path d="M25.304,26.514028 L25.304,63.594028 L20,63.594028 L20,26.514028 L25.304,26.514028 Z M60.392,20.610028 L60.392,57.342028 C60.392,61.0816189 58.463414,63.0704701 54.7387712,63.1589409 L54.476,63.162028 L50.3597144,63.162028 L48.941865,58.0359571 L53.468,58.194028 C54.4851192,58.194028 55.0365398,57.5391548 55.0845674,56.1947763 L55.088,55.998028 L55.088,25.626028 L37.184,25.626028 L37.184,20.610028 L60.392,20.610028 Z M43.064,27.186028 L43.063,33.954028 L52.184,33.954028 L52.184,39.066028 L43.063,39.066028 L43.063,39.870028 L43.7176227,40.4000314 C47.2592922,43.2934951 50.3448162,46.1873053 52.9461831,49.0549565 L53.4961981,49.6690431 L54.2116978,50.4917297 L50.5090785,54.2487993 L50.3,53.970028 C48.5466244,51.6321939 46.3527218,49.2189576 43.7182374,46.7308997 L43.063,46.120028 L43.064,60.858028 L37.856,60.858028 L37.856,44.334028 L37.7726754,44.4969239 C35.5744325,48.6762934 33.0779145,52.1668788 30.2624277,54.9858862 L29.8152234,55.4254141 L29.3843692,55.8336486 L29.1172793,56.0821906 L25.7987428,50.7297125 L26.033237,50.5673703 C30.1731709,47.7012622 33.5113169,43.9033694 36.0628353,39.1772268 L36.121,39.066028 L28.208,39.066028 L28.208,33.954028 L37.856,33.954028 L37.856,27.186028 L43.064,27.186028 Z M28.4922788,18 L28.6390469,18.169942 C30.2503028,20.0356067 31.734214,22.188625 33.1654833,24.691336 L33.6722926,25.5944169 L29.0603706,27.9817648 L28.9184049,27.7288884 C27.4298978,25.0774853 25.9265466,22.8330489 24.3308623,20.9181894 L23.9609531,20.4821139 L23.6989772,20.1787734 L28.4922788,18 Z" id="形状结合" fill="#FFFFFF" fill-rule="nonzero"></path>
            <path d="M12,0 C5.372583,0 0,5.372583 0,12 C0,18.627417 5.372583,24 12,24 C18.627417,24 24,18.627417 24,12 C24,5.372583 18.627417,0 12,0 Z" id="路径" fill="#FFFFFF" fill-rule="nonzero"></path>
            <path d="M12,2 C17.5228475,2 22,6.4771525 22,12 C22,17.5228475 17.5228475,22 12,22 C6.4771525,22 2,17.5228475 2,12 C2,6.4771525 6.4771525,2 12,2 Z" id="路径" fill="#E90000" fill-rule="nonzero"></path>
            <path d="M68,56 C61.372583,56 56,61.372583 56,68 C56,74.627417 61.372583,80 68,80 C74.627417,80 80,74.627417 80,68 C80,61.372583 74.627417,56 68,56 Z" id="路径" fill="#FFFFFF" fill-rule="nonzero"></path>
            <path d="M68,58 C73.5228475,58 78,62.4771525 78,68 C78,73.5228475 73.5228475,78 68,78 C62.4771525,78 58,73.5228475 58,68 C58,62.4771525 62.4771525,58 68,58 Z" id="路径" fill="#003DE8" fill-rule="nonzero"></path>
        </g>
    </g>
</svg>