<?xml version="1.0" encoding="UTF-8"?>
<svg width="80px" height="80px" viewBox="0 0 80 80" version="1.1" xmlns="http://www.w3.org/2000/svg" xmlns:xlink="http://www.w3.org/1999/xlink">
    <title>z1_en</title>
    <g id="页面-1" stroke="none" stroke-width="1" fill="none" fill-rule="evenodd">
        <g id="z1_en">
            <circle id="椭圆形备份-10" fill="#E90000" cx="40" cy="40" r="40"></circle>
            <path d="M41.812,20 C45.9054728,20 49.1527204,20.9901921 51.491076,22.9778184 C53.6866608,24.8767026 54.8,27.4299605 54.8,30.58 C54.8,32.8926332 54.2240209,34.9011758 53.0796956,36.5870083 C52.3013184,37.652156 51.2939774,38.5249504 50.0282796,39.2366812 L49.619,39.455 L49.6658912,39.4682102 C51.4284113,40.0009266 52.8591994,40.8352733 53.9656193,41.9783104 L54.1977471,42.2279744 L54.4063631,42.4706303 C55.7781516,44.1406336 56.48,46.4403071 56.48,49.228 C56.48,53.4012537 55.0175455,56.5329744 52.1133501,58.5480251 C49.7699016,60.1103241 46.4923322,60.9203977 42.3670921,60.9803999 L41.868,60.984 L23,60.984 L23,20 L41.812,20 Z M41.084,43.176 L30.552,43.176 L30.552,54.608 L40.916,54.608 C43.3084953,54.608 45.1842721,54.2301457 46.4948694,53.4962122 C48.13789,52.5720131 48.928,51.1646297 48.928,49.116 C48.928,46.9872932 48.3293382,45.4970073 47.168,44.588 C45.9849067,43.7006801 44.0891198,43.2227677 41.4806203,43.1792643 L41.084,43.176 Z M40.188,26.376 L30.552,26.376 L30.552,36.8 L40.076,36.8 C42.7115058,36.8 44.6049958,36.3434138 45.6881758,35.5190303 C46.7076022,34.6525179 47.248,33.2629236 47.248,31.364 C47.248,29.6334713 46.7119734,28.3699801 45.7179142,27.624368 C44.6365974,26.8379559 42.9456765,26.4190747 40.5689782,26.3791526 L40.188,26.376 Z" id="B备份-3" fill="#FFFFFF" fill-rule="nonzero"></path>
        </g>
    </g>
</svg>