<?xml version="1.0" encoding="UTF-8"?>
<svg width="80px" height="80px" viewBox="0 0 80 80" version="1.1" xmlns="http://www.w3.org/2000/svg" xmlns:xlink="http://www.w3.org/1999/xlink">
    <title>z3</title>
    <g id="页面-1" stroke="none" stroke-width="1" fill="none" fill-rule="evenodd">
        <g id="z3">
            <circle id="椭圆形" fill="#E90000" cx="40" cy="40" r="40"></circle>
            <path d="M36.1949278,19.1399343 L42.4786635,18.0657915 L42.5756377,18.2726698 C43.2214102,19.6503179 43.840996,21.1252359 44.4151541,22.6615395 L44.626,23.236 L61.852,23.236 L61.852,28.684 L26.86,28.684 L26.8599708,38.2761856 C26.7232237,48.076396 25.3340325,56.0993277 22.7089137,62.276247 L22.4933582,62.7730316 L22.2723878,63.2617175 L22.1030523,63.6286111 L17.3608212,59.419215 L17.4566705,59.2160144 C19.7730418,54.3053072 21.0086952,47.5741862 21.1617514,38.9915097 L21.172,38.272 L21.172,23.236 L38.428,23.236 L38.3583288,23.084859 C37.9167677,22.1423373 37.4687923,21.2745658 37.0027678,20.4647971 L36.7208941,19.9857622 L36.4341301,19.519844 L36.1949278,19.1399343 Z M47.26,30.292 L47.26,39.316 L59.5,39.316 L59.5,44.764 L47.26,44.763 L47.26,56.164 L61.852,56.164 L61.852,61.66 L26.74,61.66 L26.74,56.164 L41.572,56.164 L41.572,44.763 L29.572,44.764 L29.572,39.316 L41.572,39.316 L41.572,30.292 L47.26,30.292 Z" id="庄" fill="#FFFFFF" fill-rule="nonzero"></path>
            <path d="M12,0 C5.372583,0 0,5.372583 0,12 C0,18.627417 5.372583,24 12,24 C18.627417,24 24,18.627417 24,12 C24,5.372583 18.627417,0 12,0 Z" id="路径" fill="#FFFFFF" fill-rule="nonzero"></path>
            <path d="M12,2 C17.5228475,2 22,6.4771525 22,12 C22,17.5228475 17.5228475,22 12,22 C6.4771525,22 2,17.5228475 2,12 C2,6.4771525 6.4771525,2 12,2 Z" id="路径" fill="#E90000" fill-rule="nonzero"></path>
        </g>
    </g>
</svg>